# xmcd
#
# Track frame offsets:
#	150
#	18270
#	42827
#	64465
#	86077
#	103022
#	122737
#	140732
#	168212
#	189825
#	207577
#	226972
#	252312
#	272177
#	295037
#	316912
#
# Disc length: 4495 seconds
#
# Revision: 1
# Processed by: cddbd v1.5PL3 Copyright (c) Steve Scherf et al.
# Submitted via: CDex 1.50Beta5
#
DISCID=e8118d10
DTITLE=吉幾三 - BEST COLLECTION’99
DYEAR=1999
DGENRE=Country
TTITLE0=冬の酒
TTITLE1=雪国
TTITLE2=出逢いの唄
TTITLE3=サマザマね
TTITLE4=むつみ丸
TTITLE5=女のかぞえ唄
TTITLE6=みちのくブルース
TTITLE7=Good-bye
TTITLE8=通天閣
TTITLE9=漢江
TTITLE10=冬鴎
TTITLE11=蒙古
TTITLE12=名護の夢
TTITLE13=釜山
TTITLE14=OKINAWA
TTITLE15=海上
EXTD=
EXTT0=
EXTT1=
EXTT2=
EXTT3=
EXTT4=
EXTT5=
EXTT6=
EXTT7=
EXTT8=
EXTT9=
EXTT10=
EXTT11=
EXTT12=
EXTT13=
EXTT14=
EXTT15=
PLAYORDER=
